HIERARCHY
ROOT root
{
  OFFSET 158.576 82.3997 32.7916
  CHANNELS 6 Xposition Yposition Zposition Zrotation Xrotation Yrotation
  JOINT pelvis
  {
    OFFSET 0 0 0
    CHANNELS 3 Zrotation Xrotation Yrotation
    JOINT thorax
    {
      OFFSET 0 22.7874 -5
      CHANNELS 3 Zrotation Xrotation Yrotation
      JOINT rclavicle
      {
        OFFSET 0 28.1932 0
        CHANNELS 3 Zrotation Xrotation Yrotation
        JOINT rhumerus
        {
          OFFSET -18.7865 5.8498 0
          CHANNELS 3 Zrotation Xrotation Yrotation
          JOINT rradius
          {
            OFFSET -24.717 0 0
            CHANNELS 3 Zrotation Xrotation Yrotation
            JOINT rhand
            {
              OFFSET -24.7363 0 0
              CHANNELS 3 Zrotation Xrotation Yrotation
              End Site
              {
                OFFSET -8.2454 0 0
              }
            }
          }
        }
      }
      JOINT lclavicle
      {
        OFFSET 0 28.1932 0
        CHANNELS 3 Zrotation Xrotation Yrotation
        JOINT lhumerus
        {
          OFFSET 18.7865 5.8498 0
          CHANNELS 3 Zrotation Xrotation Yrotation
          JOINT lradius
          {
            OFFSET 24.717 0 0
            CHANNELS 3 Zrotation Xrotation Yrotation
            JOINT lhand
            {
              OFFSET 24.7363 0 0
              CHANNELS 3 Zrotation Xrotation Yrotation
              End Site
              {
                OFFSET 8.2454 0 0
              }
            }
          }
        }
      }
      JOINT head
      {
        OFFSET 0 35.4281 0
        CHANNELS 3 Zrotation Xrotation Yrotation
        End Site
        {
          OFFSET 0 11.8094 0
        }
      }
    }
    JOINT rfemur
    {
      OFFSET -9.1547 0 0
      CHANNELS 3 Zrotation Xrotation Yrotation
      JOINT rtibia
      {
        OFFSET 0 -43.3327 0
        CHANNELS 3 Zrotation Xrotation Yrotation
        JOINT rfoot
        {
          OFFSET 0 -38.9241 0
          CHANNELS 3 Zrotation Xrotation Yrotation
          JOINT rtoes
          {
            OFFSET 0 0 17.1698
            CHANNELS 3 Zrotation Xrotation Yrotation
            End Site
            {
              OFFSET 0 0 5.7233
            }
          }
        }
      }
    }
    JOINT lfemur
    {
      OFFSET 9.1547 0 0
      CHANNELS 3 Zrotation Xrotation Yrotation
      JOINT ltibia
      {
        OFFSET 0 -43.3327 0
        CHANNELS 3 Zrotation Xrotation Yrotation
        JOINT lfoot
        {
          OFFSET 0 -38.9241 0
          CHANNELS 3 Zrotation Xrotation Yrotation
          JOINT ltoes
          {
            OFFSET 0 0 17.1698
            CHANNELS 3 Zrotation Xrotation Yrotation
            End Site
            {
              OFFSET 0 0 5.7233
            }
          }
        }
      }
    }
  }
}
MOTION
Frames:	15
Frame Time:	0.0333333
-29.9105 85.4579 122.099 -5.47738 -1.16071 85.5022 0 0 0 2.58574 -10.9868 -7.58808 27.0599 0 -11.4021 48.409 6.72821 -6.87588 0 0 38.7841 -1.23575 -0.0746538 6.91011 -29.8235 0 15.9066 -48.3894 3.57963 11.5715 0 0 -38.6022 -1.04646 -0.0771567 8.43261 -3.20522 3.19615 4.49661 -1.07803 -2.51973 -3.59658 0 11.9377 0 -0.0568698 1.99059 1.63679 0.0569 -67.8139 0 9.13328 -26.4035 -1.30818 0 45.3073 0 -0.454394 2.13569 11.9808 0.4628 -29.0729 0
-29.1176 85.1713 120.573 -5.8375 -1.2518 88.2679 0 0 0 1.65099 -11.8342 -9.29598 26.9865 0 -11.9388 49.034 3.91169 -7.48524 0 0 37.3654 -1.47389 -0.0969577 7.52531 -28.7634 0 14.939 -47.205 4.81479 9.9323 0 0 -41.4475 -0.691983 -0.0508474 8.4093 -2.46724 3.16737 3.19719 -2.04656 -3.4928 -3.62865 0 15.1559 0 0.00759252 0.516844 -0.841634 -0.0076 -68.1123 0 8.42332 -21.0603 -1.58746 0 35.7399 0 -0.0728404 0.406757 9.97525 0.0726 -45.1933 0
-28.4999 85.0746 118.61 -5.9032 -0.553921 91.0184 0 0 0 -0.12132 -11.8377 -11.0426 27.2662 0 -12.3207 49.5097 0.929677 -8.2932 0 0 35.3229 -2.14817 -0.148184 7.88903 -28.4891 0 14.047 -45.4593 6.10797 7.85668 0 0 -43.9612 -0.315722 -0.0219856 7.9687 -1.90846 2.94209 1.83782 -4.34459 -6.51288 -3.6362 0 23.2551 0 -0.0228676 -0.550525 -2.37861 0.0229 -71.6626 0 6.62261 -17.0206 -0.533571 0 27.2168 0 0.123064 -0.980848 7.22646 -0.1253 -46.2245 0
-28.3006 85.2679 116.39 -5.98217 0.478584 94.0884 0 0 0 -2.26427 -11.1263 -13.153 27.8445 0 -12.7085 50.0228 -1.74533 -9.22772 0 0 33.0811 -3.38933 -0.239012 8.06647 -28.4448 0 12.9644 -43.9518 6.93913 5.20674 0 0 -44.8793 0.237344 0.0143933 6.9546 -1.38849 2.71668 0.537704 -7.79733 -12.9915 -4.56375 0 37.0962 0 0.197245 3.79949 -2.97394 -0.1971 -80.6769 0 3.74983 -15.1698 -0.810753 0 22.403 0 0.104351 -1.1844 5.09779 -0.106 -41.8801 0
-28.4303 85.5484 114.382 -5.53521 0.924152 96.8007 0 0 0 -3.45907 -8.94647 -15.0143 28.1913 0 -12.9993 51.1515 -3.69376 -9.9581 0 0 30.7788 -4.30072 -0.295499 7.85791 -27.8008 0 11.6289 -43.7416 6.9977 1.9463 0 0 -43.9698 0.883803 0.0483105 6.2568 -0.724873 1.72702 -0.545048 -11.3882 -22.1062 -5.98997 0 53.7506 0 0.666631 16.7437 -2.31281 -0.6388 -88.7881 0 1.49294 -14.0884 -2.87288 0 20.5395 0 0.0523361 -0.730835 4.19754 -0.0538 -40.5011 0
-28.5502 85.685 112.841 -4.0162 0.689318 97.9531 0 0 0 -3.1849 -4.99073 -15.8494 28.1837 0 -13.0463 52.8712 -4.38935 -10.1603 0 0 28.5938 -3.52135 -0.211764 6.87985 -26.7061 0 10.4554 -44.258 6.72749 -1.54071 0 0 -42.4348 1.11098 0.0635047 6.5737 -0.005664 -0.495626 -0.989937 -14.2591 -32.1716 -7.13153 0 69.3904 0 -0.80886 31.6469 1.54135 0.6887 -85.0571 0 0.876796 -12.0688 -3.51539 0 19.3073 0 0.0242567 -0.454983 3.215 -0.0266953 -41.7005 0
-28.6295 85.7255 111.715 -2.16344 0.108512 97.3209 0 0 0 -1.97221 -0.515324 -15.7783 28.2169 0 -12.7774 54.4722 -4.13027 -10.0183 0 0 26.766 -0.894156 -0.041422 5.3018 -26.167 0 9.741 -43.911 6.90994 -4.55324 0 0 -41.337 0.686957 0.0439391 7.3182 0.437638 -3.26936 -0.528861 -16.0696 -42.9938 -8.05212 0 82.0014 0 -3.90417 37.7521 6.36043 3.0934 -80.7586 0 1.26599 -9.75409 -1.8534 0 18.3671 0 0.0350323 -0.95611 2.1763 -0.0364 -40.7464 0
-28.7825 85.8429 110.86 -0.820968 -0.821773 95.8017 0 0 0 -0.114204 3.26715 -15.4951 28.4177 0 -12.2256 55.5946 -3.95019 -9.84191 0 0 25.1689 2.00328 0.0672481 3.8473 -26.6325 0 9.3165 -42.4382 7.61102 -6.71694 0 0 -40.4437 0.194541 0.012692 7.4468 0.401578 -5.86335 0.625271 -17.4411 -54.7601 -9.93293 -180 89.7093 180 -3.84552 34.6294 6.74594 3.1735 -82.3407 0 1.91754 -8.4083 -0.277382 0 18.531 0 0.0751671 -1.86313 2.35064 -0.0765 -38.086 0
-28.8575 86.1003 110.19 0.230606 -2.21502 94.3855 0 0 0 2.38607 6.44069 -15.6113 28.4752 0 -11.543 56.5381 -4.38545 -9.74511 0 0 23.5615 3.63938 0.0932835 2.9587 -27.3739 0 8.9631 -41.2474 8.28925 -7.96211 0 0 -39.2009 0.246801 0.0152825 7.082 0.137361 -8.24715 2.0972 -20.3353 -66.3027 -14.8224 -180 86.5393 180 -2.64801 30.7598 5.1672 2.2803 -80.0582 0 2.95022 -7.50591 0.284135 0 19.1318 0 0.134054 -2.36683 3.274 -0.1355 -36.6873 0
-28.6851 86.421 109.621 1.38536 -3.68291 93.4909 0 0 0 4.79852 9.36108 -16.3361 28.4435 0 -11.0234 57.4277 -5.13255 -9.64886 0 0 22.0542 4.08114 0.0887163 2.4883 -27.6163 0 8.7168 -41.1816 8.67295 -8.32111 0 0 -37.7495 0.438823 0.0263582 7.0862 0.197299 -10.4149 3.64727 -30.6015 -75.9376 -27.9534 -180 88.1267 180 -1.884 32.3836 3.51451 1.5925 -81.1637 0 4.23508 -5.97801 1.196 0 18.7634 0 0.128515 -2.27851 3.26168 -0.1299 -36.71 0
-28.4193 86.67 108.985 2.31708 -4.42788 93.124 0 0 0 5.95957 11.7004 -17.4546 28.8076 0 -10.8623 57.9594 -5.84835 -9.52323 0 0 20.9831 4.24057 0.0802615 2.1637 -27.4745 0 8.4948 -41.5565 8.88484 -7.82042 0 0 -36.5686 -0.0157542 -0.00109029 7.6167 0.809273 -12.0347 5.07052 -61.4145 -81.4388 -60.7372 0 84.7934 0 -1.88454 35.9234 3.20988 1.527 -87.1512 0 4.75962 -4.267 2.35764 0 17.5646 0 0.0901605 -2.03284 2.57662 -0.0915 -36.298 0
-28.1739 86.853 108.297 2.96506 -4.62428 93.0158 0 0 0 6.22165 13.4888 -18.5752 29.5809 0 -10.9747 57.9663 -6.22448 -9.23683 0 0 20.401 4.49977 0.0751723 1.9264 -27.5717 0 8.2093 -41.5872 9.0862 -6.92268 0 0 -35.503 -1.07536 -0.0765213 8.13931 1.56453 -13.133 6.20644 -91.6162 -81.7792 -91.0501 0 70.4651 0 -3.20844 37.7312 5.2338 2.5412 -82.7937 0 4.54131 -2.8563 2.66922 0 16.4168 0 0.075981 -1.7582 2.51719 -0.0769953 -36.0249 0
-27.9612 87.0534 107.753 3.35505 -5.16278 92.7083 0 0 0 6.76539 14.7383 -19.3348 30.3119 0 -11.0765 57.5302 -5.61239 -8.75329 0 0 20.216 4.79768 0.0678729 1.62 -28.0084 0 7.871 -41.658 9.09789 -6.00249 0 0 -33.9329 -1.92793 -0.140791 8.35113 2.07188 -13.9536 7.07798 -90.7234 -81.6119 -89.7199 0 48.9239 0 -2.95251 38.641 4.72174 2.3086 -77.0412 0 4.69143 -1.77515 2.75562 0 15.3978 0 0.0657375 -1.29717 2.95866 -0.0671 -37.149 0
-27.7462 87.2401 107.336 3.36348 -5.93746 92.4381 0 0 0 7.30771 15.0919 -19.8507 30.9155 0 -11.0984 56.7312 -3.68108 -8.33873 0 0 20.6219 5.37409 0.0404954 0.8626 -28.0494 0 7.4534 -42.5919 8.76745 -4.89918 0 0 -31.6489 -2.1836 -0.16307 8.54283 2.54492 -14.1515 7.67206 -62.5112 -80.4436 -61.3777 0 21.2578 0 0.0327778 35.4134 -0.0565649 -0.0267 -86.7866 0 5.17843 -1.04644 3.41427 0 14.1713 0 0.0387719 -0.75654 3.03206 -0.0401 -38.5168 0
-26.7642 87.4024 106.759 5.01563 -5.93459 93.9287 0 0 0 6.85538 16.3812 -21.4157 31.5255 0 -11.3479 55.954 -1.41389 -8.09238 0 0 21.8158 6.49382 -0.0158998 -0.2807 -26.7992 0 6.896 -44.5296 8.32237 -3.48798 0 0 -29.2626 -2.51242 -0.201685 9.17656 3.38952 -13.3101 7.73345 -48.7492 -75.9743 -50.1034 0 2.7728 0 -0.735845 24.685 1.58563 0.6688 -86.6188 0 4.84226 1.97136 2.40673 0 12.0692 0 0.00943956 -0.193502 3.17672 -0.0108 -38.6387 0
